<svg xmlns="http://www.w3.org/2000/svg" viewBox="0 0 66.915 66.915" width="512" height="512"><g fill="#21CDB2"><path d="M49.221 31.5h-14.5V17.881a2 2 0 0 0-4 0V31.5h-13.5a2 2 0 0 0 0 4h13.5v14.381a2 2 0 0 0 4 0V35.5h14.5a2 2 0 0 0 0-4z"/><path d="M33.457 0C15.009 0 0 15.008 0 33.457s15.009 33.458 33.457 33.458c18.449 0 33.458-15.009 33.458-33.458C66.915 15.009 51.907 0 33.457 0zm0 62.915C17.215 62.915 4 49.7 4 33.457 4 17.215 17.215 4 33.457 4 49.7 4 62.915 17.214 62.915 33.457S49.7 62.915 33.457 62.915z"/></g></svg>