<svg xmlns="http://www.w3.org/2000/svg" viewBox="0 0 478.306 478.306" width="512" height="512"><g fill="#21CDB2"><path d="M86.649 65.425a2.51 2.51 0 0 1 2.513-2.506h318.124a2.51 2.51 0 0 1 2.513 2.506v215.91a2.509 2.509 0 0 1-2.513 2.505H243.98v31.649h163.306c18.839 0 34.164-15.322 34.164-34.154V65.425c0-18.832-15.324-34.155-34.164-34.155H89.163c-18.839 0-34.164 15.324-34.164 34.155v69.297h31.65V65.425zm379.239 263.016H243.98v44.96h201.792c17.97 0 32.534-14.564 32.534-32.542 0-6.86-5.559-12.418-12.418-12.418z"/><path d="M175.27 166.371H37.061C16.625 166.371 0 182.994 0 203.431v206.545c0 20.436 16.625 37.061 37.061 37.061H175.27c20.437 0 37.061-16.625 37.061-37.061V203.431c0-20.437-16.624-37.06-37.061-37.06zm-143.62 37.06a5.417 5.417 0 0 1 5.411-5.411H175.27a5.417 5.417 0 0 1 5.411 5.411v191.825H31.65V203.431zm74.513 229.463c-4.997 0-9.202-2.928-11.331-7.086-.899-1.752-1.526-3.664-1.526-5.77 0-7.103 5.755-12.858 12.858-12.858 7.101 0 12.856 5.755 12.856 12.858 0 2.105-.625 4.017-1.526 5.77-2.132 4.158-6.336 7.086-11.331 7.086z"/></g></svg>