<svg width="55" height="54" viewBox="0 0 55 54" xmlns="http://www.w3.org/2000/svg"><title>0044-magic-wand</title><path d="M33.895 19.6c-.814 0-1.474-.627-1.474-1.4 0-3.858-3.307-7-7.368-7-.814 0-1.474-.627-1.474-1.4 0-.773.66-1.4 1.474-1.4 4.061 0 7.368-3.142 7.368-7 0-.773.66-1.4 1.474-1.4.813 0 1.473.627 1.473 1.4 0 3.858 3.307 7 7.369 7 .813 0 1.474.627 1.474 1.4 0 .773-.66 1.4-1.474 1.4-4.062 0-7.369 3.142-7.369 7 0 .773-.66 1.4-1.473 1.4zM30.36 9.8a10.177 10.177 0 0 1 3.534 3.357A10.177 10.177 0 0 1 37.429 9.8a10.177 10.177 0 0 1-3.534-3.357A10.177 10.177 0 0 1 30.36 9.8zM4.421 28c-.813 0-1.474-.627-1.474-1.4 0-.773-.66-1.4-1.473-1.4C.66 25.2 0 24.573 0 23.8c0-.773.66-1.4 1.474-1.4.813 0 1.473-.627 1.473-1.4 0-.773.66-1.4 1.474-1.4s1.474.627 1.474 1.4c0 .773.66 1.4 1.473 1.4.814 0 1.474.627 1.474 1.4 0 .773-.66 1.4-1.474 1.4-.813 0-1.473.627-1.473 1.4 0 .773-.66 1.4-1.474 1.4zm49.065 16.63l-31.2-29.642a4.506 4.506 0 0 0-3.128-1.226 4.519 4.519 0 0 0-3.127 1.226l-1.727 1.641a4.064 4.064 0 0 0-1.291 2.971c0 1.126.46 2.178 1.29 2.97l31.201 29.642a4.506 4.506 0 0 0 3.128 1.226 4.519 4.519 0 0 0 3.127-1.226l1.727-1.641a4.064 4.064 0 0 0 1.29-2.971 4.072 4.072 0 0 0-1.29-2.97zM16.39 18.608l1.727-1.641a1.5 1.5 0 0 1 1.044-.406c.398 0 .766.146 1.043.406l4.241 4.03-3.81 3.62-4.242-4.03a1.352 1.352 0 0 1 0-1.98h-.003zM51.4 48.59l-1.728 1.641a1.497 1.497 0 0 1-1.04.406c-.395 0-.767-.146-1.04-.406l-24.874-23.63 3.811-3.62 24.873 23.63a1.352 1.352 0 0 1 0 1.98H51.4zM10.316 14c-.814 0-1.474-.627-1.474-1.4 0-2.316-1.983-4.2-4.42-4.2-.814 0-1.475-.627-1.475-1.4 0-.773.66-1.4 1.474-1.4 2.438 0 4.421-1.884 4.421-4.2 0-.773.66-1.4 1.474-1.4.813 0 1.473.627 1.473 1.4 0 2.316 1.984 4.2 4.422 4.2.813 0 1.473.627 1.473 1.4 0 .773-.66 1.4-1.473 1.4-2.438 0-4.422 1.884-4.422 4.2 0 .773-.66 1.4-1.473 1.4zm-1.48-7c.56.4 1.058.874 1.48 1.406A7.311 7.311 0 0 1 11.796 7a7.311 7.311 0 0 1-1.48-1.406A7.311 7.311 0 0 1 8.836 7zm1.48 35c-.814 0-1.474-.627-1.474-1.4 0-2.316-1.983-4.2-4.42-4.2-.814 0-1.475-.627-1.475-1.4 0-.773.66-1.4 1.474-1.4 2.438 0 4.421-1.884 4.421-4.2 0-.773.66-1.4 1.474-1.4.813 0 1.473.627 1.473 1.4 0 2.316 1.984 4.2 4.422 4.2.813 0 1.473.627 1.473 1.4 0 .773-.66 1.4-1.473 1.4-2.438 0-4.422 1.884-4.422 4.2 0 .773-.66 1.4-1.473 1.4zm-1.48-7c.56.4 1.058.874 1.48 1.406A7.311 7.311 0 0 1 11.796 35a7.311 7.311 0 0 1-1.48-1.406A7.311 7.311 0 0 1 8.836 35z" fill="#21CDB2"/></svg>