<svg width="64" height="59" viewBox="0 0 64 59" xmlns="http://www.w3.org/2000/svg"><title>0940-text-align-justify</title><path d="M62 4.476H2c-1.104 0-2-1.003-2-2.238S.896 0 2 0h60c1.104 0 2 1.003 2 2.238s-.896 2.238-2 2.238zm0 13.426H2c-1.104 0-2-1.002-2-2.238 0-1.235.896-2.237 2-2.237h60c1.104 0 2 1.002 2 2.237 0 1.236-.896 2.238-2 2.238zm0 13.427H2c-1.104 0-2-1.003-2-2.238s.896-2.238 2-2.238h60c1.104 0 2 1.003 2 2.238s-.896 2.238-2 2.238zm0 13.426H2c-1.104 0-2-1.002-2-2.238 0-1.235.896-2.237 2-2.237h60c1.104 0 2 1.002 2 2.237 0 1.236-.896 2.238-2 2.238zm0 13.427H2c-1.104 0-2-1.003-2-2.238s.896-2.238 2-2.238h60c1.104 0 2 1.003 2 2.238s-.896 2.238-2 2.238z" fill="#21CDB2"/></svg>