<svg width="61" height="64" viewBox="0 0 61 64" xmlns="http://www.w3.org/2000/svg"><title>0295-group-work</title><path d="M39.619 20.694c-.012-.53-.116-2.908-1.07-5.308-.652-1.645-1.566-2.97-2.715-3.933a7.866 7.866 0 0 0-.924-.666 6.539 6.539 0 0 0 1.661-4.384c0-3.53-2.733-6.4-6.095-6.4-3.361 0-6.095 2.87-6.095 6.4 0 1.696.634 3.239 1.66 4.384a8.13 8.13 0 0 0-.923.666c-1.148.966-2.063 2.291-2.715 3.933-1.057 2.665-1.07 5.305-1.07 5.414 0 .883.683 1.6 1.524 1.6h15.241c.841 0 1.524-.717 1.524-1.6 0-.035 0-.07-.003-.106zM27.429 6.4c0-1.763 1.368-3.2 3.047-3.2 1.68 0 3.048 1.437 3.048 3.2 0 1.763-1.369 3.2-3.048 3.2S27.43 8.163 27.43 6.4zm-2.896 12.8c.116-.749.323-1.674.683-2.586 1.018-2.566 2.74-3.814 5.26-3.814 4.355 0 5.599 4.058 5.952 6.4H24.53h.003zm-6.247 36.694c-.012-.53-.116-2.908-1.07-5.308-.652-1.645-1.566-2.967-2.715-3.933a7.866 7.866 0 0 0-.924-.666 6.539 6.539 0 0 0 1.661-4.384c0-3.53-2.734-6.4-6.095-6.4-3.362 0-6.095 2.87-6.095 6.4 0 1.696.634 3.239 1.66 4.384a8.13 8.13 0 0 0-.923.666c-1.149.966-2.063 2.291-2.715 3.933C.012 53.25 0 55.89 0 56c0 .883.683 1.6 1.524 1.6h15.241c.841 0 1.524-.717 1.524-1.6 0-.035 0-.07-.003-.106zM6.096 41.6c0-1.763 1.368-3.2 3.047-3.2 1.68 0 3.047 1.437 3.047 3.2 0 1.763-1.368 3.2-3.047 3.2-1.68 0-3.048-1.437-3.048-3.2zM3.2 54.4c.116-.749.323-1.674.683-2.586C4.9 49.248 6.623 48 9.143 48c4.355 0 5.598 4.058 5.952 6.4H3.197 3.2zm57.752 1.494c-.012-.53-.115-2.908-1.07-5.308-.652-1.645-1.566-2.967-2.715-3.933a7.866 7.866 0 0 0-.923-.666 6.539 6.539 0 0 0 1.66-4.384c0-3.53-2.733-6.4-6.094-6.4-3.362 0-6.096 2.87-6.096 6.4 0 1.696.634 3.239 1.661 4.384a8.13 8.13 0 0 0-.923.666c-1.15.966-2.063 2.291-2.716 3.933-1.057 2.665-1.07 5.305-1.07 5.414 0 .883.683 1.6 1.524 1.6h15.242c.84 0 1.523-.717 1.523-1.6 0-.035 0-.07-.003-.106zM48.762 41.6c0-1.763 1.368-3.2 3.048-3.2 1.679 0 3.047 1.437 3.047 3.2 0 1.763-1.368 3.2-3.047 3.2-1.68 0-3.048-1.437-3.048-3.2zm-2.895 12.8c.115-.749.323-1.674.682-2.586C47.567 49.248 49.29 48 51.81 48c4.356 0 5.599 4.058 5.953 6.4H45.864h.003zM30.476 64c-3.962 0-7.896-1.02-11.38-2.954-.743-.412-1.027-1.382-.634-2.163.394-.78 1.317-1.078 2.06-.665a20.562 20.562 0 0 0 9.954 2.582c3.468 0 6.91-.893 9.954-2.582.743-.413 1.667-.116 2.06.665s.11 1.75-.634 2.163A23.497 23.497 0 0 1 30.476 64zM52.51 33.6c-.667 0-1.283-.464-1.468-1.174-1.415-5.376-4.679-9.984-9.189-12.98-.71-.473-.923-1.459-.475-2.208.448-.748 1.39-.97 2.102-.499 5.157 3.421 8.884 8.688 10.5 14.832.222.851-.254 1.735-1.064 1.968a1.477 1.477 0 0 1-.406.058v.003zm-44.068 0a1.49 1.49 0 0 1-.405-.058c-.811-.233-1.287-1.116-1.064-1.968 1.615-6.144 5.345-11.41 10.499-14.832.71-.47 1.652-.25 2.103.5.45.748.238 1.734-.476 2.208-4.513 2.992-7.777 7.603-9.188 12.979-.186.71-.799 1.174-1.47 1.174V33.6z" fill="#21CDB2"/></svg>